# xmcd
# 
# Track frame offsets:
#     150
#     15567
#     29012
#     41677
#     57717
#     71750
#     84140
#     96867
#     109162
#     121562
#     134320
#     145957
#     158137
#     170817
#     185287
#     196320
# 
# Disc length: 2795
# 
# Revision: 3
# Processed by: cddbd v1.5.2PL0 Copyright (c) Steve Scherf et al.
# Submitted via: fre:ac v1.0.27
# 
DISCID=de0ae910
DTITLE=Sonny Terry - Whoopin' The Blues: The Capitol Recordings, 1947 - 1950
DYEAR=1995
DGENRE=Blues
TTITLE0=Telephone Blues
TTITLE1=Custard Pie Blues
TTITLE2=Riff And Harmonica Jump
TTITLE3=Mad Man Blues
TTITLE4=All Alone Blues
TTITLE5=Dirty Mistreater, Don't You Know
TTITLE6=Early Morning Blues
TTITLE7=Whoopin' The Blues
TTITLE8=Beer Garden Blues
TTITLE9=Screamin' And Cryin' Blues
TTITLE10=Crow Jane Blues
TTITLE11=Worried Man Blues
TTITLE12=Airplane Blues
TTITLE13=Hot Headed Woman
TTITLE14=Harmonica Rag
TTITLE15=Leavin' Blues
EXTD=
EXTT0=
EXTT1=
EXTT2=
EXTT3=
EXTT4=
EXTT5=
EXTT6=
EXTT7=
EXTT8=
EXTT9=
EXTT10=
EXTT11=
EXTT12=
EXTT13=
EXTT14=
EXTT15=
PLAYORDER=
